# xmcd
#
# Track frame offsets:
#	150
#	27820
#	52320
#	71409
#	100437
#	130629
#	156338
#	183454
#	202617
#	223935
#	247426
#	263907
#	282871
#	299523
#	316966
#
# Disc length: 4688 seconds
#
# Revision: 0
# Processed by: cddbd v1.5.2PL0 Copyright (c) Steve Scherf et al.
# Submitted via: EasyCDDAExtractor 16.0.1.1
#
DISCID=ef124e0f
DTITLE=Porca Véia - Eu Gostei do Baile Véio!
DYEAR=1900
DGENRE=Folklore
TTITLE0=Coplas de Viramundo
TTITLE1=Xote Afigurado
TTITLE2=Vou Deixar Saudade
TTITLE3=Pataquero
TTITLE4=Morena Luxuosa
TTITLE5=Recorrendo os Aguapés
TTITLE6=No Coração do Rio Grande
TTITLE7=Baile da Encruzilhada
TTITLE8=Mulheres
TTITLE9=Bugio do Chaleira Preta
TTITLE10=De Alma Serrana
TTITLE11=Minha Fazenda
TTITLE12=Seu Elpídio e o Cusco Javali
TTITLE13=Esta Saudade Campeira
TTITLE14=Pêlo-duro e Bombachudo
EXTD=
EXTT0=
EXTT1=
EXTT2=
EXTT3=
EXTT4=
EXTT5=
EXTT6=
EXTT7=
EXTT8=
EXTT9=
EXTT10=
EXTT11=
EXTT12=
EXTT13=
EXTT14=
PLAYORDER=
